<?xml version="1.0" encoding="UTF-8"?>
<svg id="Calque_2" data-name="Calque 2" xmlns="http://www.w3.org/2000/svg" viewBox="0 0 1198.78 412.58">
  <defs>
    <style>
      .cls-1 {
        fill: #050638;
      }

      .cls-2 {
        fill: #fff;
      }
    </style>
  </defs>
  <g id="Layer_1">
    <g>
      <g>
        <g>
          <path class="cls-2" d="m415.35,68.49h38.59l-81.32,110.14v65.69h-32.24v-65.69l-81.32-110.14h38.34l59.1,74.73,58.86-74.73Z"/>
          <path class="cls-2" d="m524.27,68.49h107.7c9.44,0,17.5,3.3,24.18,9.89,6.67,6.59,10.01,14.62,10.01,24.06v141.89h-32.48v-59.1h-111.12v59.1h-32.24V102.44c0-9.44,3.3-17.46,9.89-24.06,6.59-6.59,14.61-9.89,24.05-9.89Zm-1.71,84.5h111.12v-50.55c0-1.14-.57-1.71-1.71-1.71h-107.7c-1.14,0-1.71.57-1.71,1.71v50.55Z"/>
          <path class="cls-2" d="m861.77,197.44V68.49h32.48v175.83h-35.17l-108.43-128.95v128.95h-32.23V68.49h35.17l108.19,128.95Z"/>
          <path class="cls-2" d="m946.27,244.33V68.49h32.24v175.83h-32.24Z"/>
          <path class="cls-2" d="m1198.78,102.44v13.43h-32.48v-13.43c0-1.14-.49-1.71-1.46-1.71h-107.94c-1.14,0-1.71.57-1.71,1.71v36.14c0,1.14.57,1.71,1.71,1.71h107.94c9.28,0,17.25,3.3,23.93,9.89,6.67,6.59,10.01,14.61,10.01,24.06v36.14c0,9.44-3.34,17.46-10.01,24.06-6.68,6.59-14.65,9.89-23.93,9.89h-107.94c-9.45,0-17.46-3.3-24.05-9.89-6.59-6.59-9.89-14.61-9.89-24.06v-13.43h32.23v13.43c0,1.14.57,1.71,1.71,1.71h107.94c.98,0,1.46-.57,1.46-1.71v-36.14c0-1.14-.49-1.71-1.46-1.71h-107.94c-9.45,0-17.46-3.3-24.05-9.89-6.59-6.59-9.89-14.61-9.89-24.06v-36.14c0-9.44,3.3-17.46,9.89-24.06,6.59-6.59,14.61-9.89,24.05-9.89h107.94c9.28,0,17.25,3.3,23.93,9.89,6.67,6.59,10.01,14.62,10.01,24.06Z"/>
        </g>
        <g>
          <path class="cls-1" d="m363.91,320.37l9.5-30.82h12.5l9.43,30.82,10.66-30.82h12.96l-18.71,53.59h-8.89l-11.73-37.26-11.65,37.26h-8.89l-18.71-53.59h12.96l10.58,30.82Z"/>
          <path class="cls-1" d="m479.29,289.55v10.66h-26.68v11.04h24v10.2h-24v11.11h27.52v10.58h-39.48v-53.59h38.64Z"/>
          <path class="cls-1" d="m529.58,343.13h-23.46v-53.59h20.86c3.62,0,6.76.44,9.39,1.3,2.63.87,4.61,2.05,5.94,3.53,2.4,2.76,3.6,5.88,3.6,9.35,0,4.19-1.36,7.31-4.06,9.35-.92.72-1.56,1.17-1.91,1.34-.36.18-1,.47-1.91.88,3.32.72,5.96,2.21,7.93,4.48,1.97,2.27,2.96,5.1,2.96,8.47,0,3.73-1.28,7.03-3.84,9.89-2.96,3.32-8.13,4.98-15.49,4.98Zm-11.5-31.89h5.67c3.32,0,5.79-.36,7.4-1.07,1.61-.72,2.42-2.26,2.42-4.64s-.75-3.95-2.22-4.72c-1.49-.77-3.99-1.15-7.52-1.15h-5.75v11.58Zm0,21.77h8.2c3.42,0,5.99-.42,7.7-1.26,1.71-.84,2.57-2.51,2.57-4.99s-.91-4.11-2.72-4.91c-1.81-.79-4.72-1.18-8.7-1.18h-7.05v12.34Z"/>
          <path class="cls-1" d="m650.79,296.56c5.11,4.68,7.67,11.18,7.67,19.51s-2.49,14.92-7.48,19.78c-4.98,4.86-12.58,7.28-22.8,7.28h-18.33v-53.59h18.94c9.56,0,16.9,2.34,22,7.01Zm-8.77,31.85c2.93-2.76,4.41-6.77,4.41-12.04s-1.47-9.31-4.41-12.15c-2.94-2.84-7.45-4.25-13.54-4.25h-6.67v32.58h7.59c5.47,0,9.67-1.38,12.61-4.14Z"/>
          <path class="cls-1" d="m722.78,289.55v10.66h-26.68v11.04h24v10.2h-24v11.11h27.53v10.58h-39.48v-53.59h38.64Z"/>
          <path class="cls-1" d="m769.39,323.66l13.65-34.12h12.96l-21.55,53.59h-10.12l-21.55-53.59h12.96l13.65,34.12Z"/>
          <path class="cls-1" d="m856.33,289.55v10.66h-26.68v11.04h24v10.2h-24v11.11h27.53v10.58h-39.48v-53.59h38.64Z"/>
          <path class="cls-1" d="m883.16,343.13v-53.59h11.96v42.93h22.85v10.66h-34.8Z"/>
          <path class="cls-1" d="m985.66,335.74c-5.42,5.29-12.09,7.94-20.01,7.94s-14.59-2.65-20.01-7.94c-5.42-5.29-8.13-11.87-8.13-19.74s2.71-14.45,8.13-19.74c5.41-5.29,12.08-7.93,20.01-7.93s14.59,2.64,20.01,7.93c5.41,5.29,8.12,11.87,8.12,19.74s-2.71,14.45-8.12,19.74Zm-4.06-19.7c0-4.78-1.53-8.85-4.6-12.23-3.07-3.37-6.84-5.06-11.31-5.06s-8.24,1.69-11.31,5.06c-3.07,3.37-4.6,7.45-4.6,12.23s1.53,8.84,4.6,12.19c3.07,3.35,6.84,5.02,11.31,5.02s8.25-1.67,11.31-5.02c3.07-3.35,4.6-7.41,4.6-12.19Z"/>
          <path class="cls-1" d="m1056.16,294.34c3.76,3.19,5.63,8.1,5.63,14.72s-1.93,11.46-5.79,14.53c-3.86,3.07-9.75,4.6-17.67,4.6h-7.13v14.95h-11.96v-53.59h18.94c8.23,0,14.23,1.6,17.98,4.79Zm-8.78,21.08c1.43-1.61,2.15-3.96,2.15-7.05s-.93-5.29-2.8-6.59c-1.86-1.31-4.76-1.96-8.7-1.96h-6.82v18.01h8.05c3.99,0,6.7-.8,8.13-2.41Z"/>
          <path class="cls-1" d="m1125.11,289.55v10.66h-26.67v11.04h24v10.2h-24v11.11h27.52v10.58h-39.48v-53.59h38.64Z"/>
          <path class="cls-1" d="m1195.42,307.33c0,8.59-3.4,14.13-10.2,16.64l13.56,19.17h-14.72l-11.88-17.09h-8.28v17.09h-11.97v-53.59h20.32c8.33,0,14.27,1.4,17.82,4.22,3.55,2.81,5.33,7.33,5.33,13.57Zm-14.42,6.36c1.48-1.33,2.22-3.44,2.22-6.33s-.76-4.87-2.3-5.94c-1.53-1.07-4.22-1.61-8.06-1.61h-8.97v15.87h8.74c4.09,0,6.87-.66,8.36-1.99Z"/>
        </g>
      </g>
      <g>
        <g>
          <polygon class="cls-2" points="54.28 219.69 0 219.69 81.9 349.5 109.94 394 135.12 347.82 107.07 303.36 54.28 219.69"/>
          <polygon class="cls-2" points="99.82 412.58 109.94 394 135.12 347.82 204.93 219.69 152.65 219.69 107.07 303.36 81.9 349.5 47.53 412.58 99.82 412.58"/>
        </g>
        <g>
          <polygon class="cls-1" points=".02 174.31 69.84 46.18 95.02 0 123.06 44.5 97.89 90.64 52.32 174.31 .02 174.31"/>
          <polygon class="cls-1" points="69.84 46.18 95.02 0 123.06 44.5 204.94 174.31 150.68 174.31 97.89 90.64 69.84 46.18"/>
        </g>
      </g>
    </g>
  </g>
</svg>