<?xml version="1.0" encoding="utf-8"?>
<!-- Generator: Adobe Illustrator 24.0.1, SVG Export Plug-In . SVG Version: 6.00 Build 0)  -->
<svg version="1.1" id="Layer_1" xmlns="http://www.w3.org/2000/svg" xmlns:xlink="http://www.w3.org/1999/xlink" x="0px" y="0px"
	 viewBox="0 0 2559 912" style="enable-background:new 0 0 2559 912;" xml:space="preserve">
<style type="text/css">
	.st0{fill:url(#XMLID_2_);}
	.st1{fill:url(#XMLID_3_);}
	.st2{fill:url(#XMLID_4_);}
	.st3{fill:url(#XMLID_5_);}
	.st4{fill:url(#XMLID_6_);}
	.st5{fill:#050638;}
	.st6{fill:url(#XMLID_7_);}
	.st7{fill:url(#XMLID_8_);}
	.st8{fill:url(#XMLID_9_);}
	.st9{fill:url(#XMLID_10_);}
	.st10{fill:url(#XMLID_11_);}
	.st11{fill:url(#XMLID_12_);}
	.st12{fill:url(#XMLID_13_);}
	.st13{fill:url(#XMLID_14_);}
	.st14{fill:url(#XMLID_15_);}
</style>
<g id="XMLID_199_">
	<g id="XMLID_106_">
		<g id="XMLID_186_">
			<linearGradient id="XMLID_2_" gradientUnits="userSpaceOnUse" x1="718.8269" y1="341.3083" x2="2365.5078" y2="-101.5644">
				<stop  offset="0" style="stop-color:#3553F6"/>
				<stop  offset="0.2227" style="stop-color:#247EEE"/>
				<stop  offset="0.4486" style="stop-color:#16A2E6"/>
				<stop  offset="0.6603" style="stop-color:#0CBCE1"/>
				<stop  offset="0.8503" style="stop-color:#06CBDE"/>
				<stop  offset="1" style="stop-color:#04D1DD"/>
			</linearGradient>
			<path id="XMLID_187_" class="st0" d="M892.15,165.99h81.21L802.21,397.8v138.26h-67.85V397.8L563.2,165.99h80.7l124.38,157.28
				L892.15,165.99z"/>
			<linearGradient id="XMLID_3_" gradientUnits="userSpaceOnUse" x1="758.1429" y1="487.4922" x2="2404.824" y2="44.6195">
				<stop  offset="0" style="stop-color:#3553F6"/>
				<stop  offset="0.2227" style="stop-color:#247EEE"/>
				<stop  offset="0.4486" style="stop-color:#16A2E6"/>
				<stop  offset="0.6603" style="stop-color:#0CBCE1"/>
				<stop  offset="0.8503" style="stop-color:#06CBDE"/>
				<stop  offset="1" style="stop-color:#04D1DD"/>
			</linearGradient>
			<path id="XMLID_189_" class="st1" d="M1121.39,165.99h226.67c19.87,0,36.83,6.94,50.88,20.81
				c14.05,13.88,21.07,30.76,21.07,50.63v298.62h-68.36V411.67h-233.86v124.38h-67.85V237.43c0-19.87,6.94-36.75,20.82-50.63
				C1084.64,172.93,1101.51,165.99,1121.39,165.99z M1117.79,343.83h233.86V237.43c0-2.39-1.21-3.6-3.6-3.6h-226.67
				c-2.4,0-3.6,1.2-3.6,3.6V343.83z"/>
			<linearGradient id="XMLID_4_" gradientUnits="userSpaceOnUse" x1="788.4625" y1="600.226" x2="2435.1436" y2="157.3533">
				<stop  offset="0" style="stop-color:#3553F6"/>
				<stop  offset="0.2227" style="stop-color:#247EEE"/>
				<stop  offset="0.4486" style="stop-color:#16A2E6"/>
				<stop  offset="0.6603" style="stop-color:#0CBCE1"/>
				<stop  offset="0.8503" style="stop-color:#06CBDE"/>
				<stop  offset="1" style="stop-color:#04D1DD"/>
			</linearGradient>
			<path id="XMLID_193_" class="st2" d="M1831.72,437.37V165.99h68.36v370.07h-74.01l-228.21-271.39v271.39h-67.84V165.99h74.02
				L1831.72,437.37z"/>
			<linearGradient id="XMLID_5_" gradientUnits="userSpaceOnUse" x1="810.6167" y1="682.5992" x2="2457.2976" y2="239.7266">
				<stop  offset="0" style="stop-color:#3553F6"/>
				<stop  offset="0.2227" style="stop-color:#247EEE"/>
				<stop  offset="0.4486" style="stop-color:#16A2E6"/>
				<stop  offset="0.6603" style="stop-color:#0CBCE1"/>
				<stop  offset="0.8503" style="stop-color:#06CBDE"/>
				<stop  offset="1" style="stop-color:#04D1DD"/>
			</linearGradient>
			<path id="XMLID_195_" class="st3" d="M2009.55,536.06V165.99h67.85v370.07H2009.55z"/>
			<linearGradient id="XMLID_6_" gradientUnits="userSpaceOnUse" x1="831.6865" y1="760.9407" x2="2478.3674" y2="318.0681">
				<stop  offset="0" style="stop-color:#3553F6"/>
				<stop  offset="0.2227" style="stop-color:#247EEE"/>
				<stop  offset="0.4486" style="stop-color:#16A2E6"/>
				<stop  offset="0.6603" style="stop-color:#0CBCE1"/>
				<stop  offset="0.8503" style="stop-color:#06CBDE"/>
				<stop  offset="1" style="stop-color:#04D1DD"/>
			</linearGradient>
			<path id="XMLID_197_" class="st4" d="M2541,237.43v28.27h-68.36v-28.27c0-2.39-1.03-3.6-3.08-3.6h-227.18c-2.4,0-3.6,1.2-3.6,3.6
				v76.07c0,2.4,1.2,3.6,3.6,3.6h227.18c19.53,0,36.31,6.94,50.37,20.81c14.04,13.88,21.07,30.76,21.07,50.63v76.07
				c0,19.88-7.03,36.75-21.07,50.63c-14.05,13.88-30.84,20.81-50.37,20.81h-227.18c-19.88,0-36.75-6.94-50.63-20.81
				c-13.88-13.88-20.81-30.75-20.81-50.63v-28.27h67.84v28.27c0,2.4,1.2,3.6,3.6,3.6h227.18c2.05,0,3.08-1.2,3.08-3.6v-76.07
				c0-2.39-1.03-3.6-3.08-3.6h-227.18c-19.88,0-36.75-6.94-50.63-20.81s-20.81-30.75-20.81-50.63v-76.07
				c0-19.87,6.94-36.75,20.81-50.63c13.88-13.88,30.75-20.81,50.63-20.81h227.18c19.53,0,36.31,6.94,50.37,20.81
				C2533.97,200.68,2541,217.57,2541,237.43z"/>
		</g>
		<g>
			<path class="st5" d="M783.9,696.09l20-64.86h26.3l19.85,64.86l22.43-64.86h27.27l-39.37,112.78h-18.71l-24.69-78.41l-24.53,78.41
				h-18.71l-39.37-112.78h27.27L783.9,696.09z"/>
			<path class="st5" d="M1026.73,631.23v22.43h-56.15v23.24h50.51v21.46h-50.51v23.39h57.92v22.27h-83.1V631.23H1026.73z"/>
			<path class="st5" d="M1132.58,744.01h-49.37V631.23h43.89c7.63,0,14.22,0.92,19.76,2.74c5.54,1.83,9.71,4.31,12.51,7.43
				c5.05,5.81,7.58,12.37,7.58,19.69c0,8.82-2.86,15.38-8.55,19.68c-1.93,1.51-3.27,2.46-4.03,2.83c-0.76,0.38-2.1,1-4.03,1.86
				c6.98,1.51,12.55,4.65,16.69,9.43c4.14,4.79,6.22,10.73,6.22,17.83c0,7.85-2.7,14.79-8.08,20.81
				C1158.93,740.52,1148.06,744.01,1132.58,744.01z M1108.38,676.89h11.94c6.99,0,12.18-0.75,15.56-2.26c3.4-1.51,5.1-4.76,5.1-9.76
				s-1.57-8.31-4.68-9.93c-3.13-1.61-8.4-2.42-15.83-2.42h-12.09V676.89z M1108.38,722.71h17.27c7.2,0,12.61-0.89,16.21-2.66
				c3.6-1.78,5.4-5.27,5.4-10.49c0-5.22-1.91-8.65-5.73-10.33c-3.81-1.66-9.93-2.49-18.31-2.49h-14.84V722.71z"/>
			<path class="st5" d="M1387.67,645.99c10.76,9.84,16.14,23.54,16.14,41.07s-5.23,31.41-15.73,41.63
				c-10.48,10.22-26.48,15.32-47.99,15.32h-38.57V631.23h39.85C1361.48,631.23,1376.92,636.15,1387.67,645.99z M1369.2,713.03
				c6.18-5.81,9.28-14.25,9.28-25.33c0-11.08-3.1-19.6-9.28-25.58c-6.19-5.97-15.69-8.95-28.49-8.95h-14.04v68.57h15.98
				C1354.16,721.74,1363.01,718.84,1369.2,713.03z"/>
			<path class="st5" d="M1539.18,631.23v22.43h-56.16v23.24h50.51v21.46h-50.51v23.39h57.93v22.27h-83.1V631.23H1539.18z"/>
			<path class="st5" d="M1637.29,703.03l28.72-71.81h27.27l-45.35,112.78h-21.29l-45.35-112.78h27.27L1637.29,703.03z"/>
			<path class="st5" d="M1820.26,631.23v22.43h-56.16v23.24h50.51v21.46h-50.51v23.39h57.93v22.27h-83.1V631.23H1820.26z"/>
			<path class="st5" d="M1876.73,744.01V631.23h25.17v90.36h48.08v22.43H1876.73z"/>
			<path class="st5" d="M2092.46,728.44c-11.41,11.13-25.45,16.71-42.12,16.71c-16.68,0-30.71-5.57-42.11-16.71
				c-11.41-11.13-17.11-24.98-17.11-41.54c0-16.57,5.7-30.42,17.11-41.55c11.39-11.13,25.43-16.7,42.11-16.7
				c16.68,0,30.71,5.57,42.12,16.7c11.4,11.13,17.09,24.98,17.09,41.55C2109.55,703.46,2103.85,717.31,2092.46,728.44z
				 M2083.9,686.97c0-10.06-3.23-18.64-9.68-25.73c-6.45-7.1-14.39-10.65-23.81-10.65c-9.4,0-17.34,3.55-23.79,10.65
				c-6.45,7.09-9.68,15.67-9.68,25.73s3.23,18.61,9.68,25.65c6.45,7.05,14.39,10.57,23.79,10.57c9.42,0,17.35-3.52,23.81-10.57
				C2080.68,705.59,2083.9,697.03,2083.9,686.97z"/>
			<path class="st5" d="M2240.82,641.31c7.91,6.72,11.86,17.05,11.86,30.98c0,13.93-4.06,24.13-12.18,30.58s-20.52,9.68-37.2,9.68
				h-15.01v31.46h-25.17V631.23h39.85C2220.3,631.23,2232.92,634.59,2240.82,641.31z M2222.34,685.68
				c3.01-3.39,4.52-8.34,4.52-14.85s-1.96-11.13-5.9-13.87c-3.92-2.75-10.02-4.11-18.31-4.11h-14.36v37.91h16.94
				C2213.63,690.76,2219.33,689.07,2222.34,685.68z"/>
			<path class="st5" d="M2385.95,631.23v22.43h-56.14v23.24h50.51v21.46h-50.51v23.39h57.92v22.27h-83.1V631.23H2385.95z"/>
			<path class="st5" d="M2533.91,668.66c0,18.07-7.16,29.75-21.46,35.01l28.55,40.34h-30.97l-25.01-35.98h-17.42v35.98h-25.18
				V631.23h42.77c17.52,0,30.03,2.96,37.5,8.88C2530.16,646.02,2533.91,655.54,2533.91,668.66z M2503.57,682.05
				c3.12-2.8,4.68-7.23,4.68-13.32c0-6.08-1.61-10.24-4.83-12.5c-3.23-2.26-8.88-3.39-16.95-3.39h-18.87v33.4h18.39
				C2494.59,686.25,2500.45,684.85,2503.57,682.05z"/>
		</g>
	</g>
	<g id="XMLID_108_">
		<g id="XMLID_109_">
			<linearGradient id="XMLID_7_" gradientUnits="userSpaceOnUse" x1="18" y1="667.6263" x2="302.3704" y2="667.6263">
				<stop  offset="0" style="stop-color:#3553F6"/>
				<stop  offset="0.2227" style="stop-color:#247EEE"/>
				<stop  offset="0.4486" style="stop-color:#16A2E6"/>
				<stop  offset="0.6603" style="stop-color:#0CBCE1"/>
				<stop  offset="0.8503" style="stop-color:#06CBDE"/>
				<stop  offset="1" style="stop-color:#04D1DD"/>
			</linearGradient>
			<polygon id="XMLID_135_" class="st6" points="132.24,484.2 18,484.2 190.36,757.41 249.39,851.06 302.37,753.87 243.35,660.3 			
				"/>
			<linearGradient id="XMLID_8_" gradientUnits="userSpaceOnUse" x1="118.0416" y1="687.1797" x2="449.3065" y2="687.1797">
				<stop  offset="0" style="stop-color:#3553F6"/>
				<stop  offset="0.2227" style="stop-color:#247EEE"/>
				<stop  offset="0.4486" style="stop-color:#16A2E6"/>
				<stop  offset="0.6603" style="stop-color:#0CBCE1"/>
				<stop  offset="0.8503" style="stop-color:#06CBDE"/>
				<stop  offset="1" style="stop-color:#04D1DD"/>
			</linearGradient>
			<polygon id="XMLID_149_" class="st7" points="228.08,890.16 249.39,851.06 302.37,753.87 449.31,484.2 339.26,484.2 
				243.35,660.3 190.36,757.41 118.04,890.16 			"/>
		</g>
		<g id="XMLID_112_">
			<polygon id="XMLID_131_" class="st5" points="18.04,388.7 164.99,119.03 217.97,21.84 277,115.48 224.01,212.59 128.11,388.7 			
				"/>
			<polygon id="XMLID_130_" class="st5" points="164.99,119.03 217.97,21.84 277,115.48 449.31,388.7 335.13,388.7 224.01,212.59 
							"/>
		</g>
	</g>
</g>
</svg>
