<?xml version="1.0" encoding="UTF-8"?>
<svg id="Calque_2" data-name="Calque 2" xmlns="http://www.w3.org/2000/svg" xmlns:xlink="http://www.w3.org/1999/xlink" viewBox="0 0 204.94 412.58">
  <defs>
    <style>
      .cls-1 {
        fill: url(#linear-gradient);
      }

      .cls-2 {
        fill: #fff;
      }

      .cls-3 {
        fill: url(#linear-gradient-2);
      }
    </style>
    <linearGradient id="linear-gradient" x1="0" y1="306.84" x2="135.12" y2="306.84" gradientUnits="userSpaceOnUse">
      <stop offset="0" stop-color="#3553f6"/>
      <stop offset=".22" stop-color="#247ded"/>
      <stop offset=".45" stop-color="#16a1e6"/>
      <stop offset=".66" stop-color="#0cbbe1"/>
      <stop offset=".85" stop-color="#06cbde"/>
      <stop offset="1" stop-color="#04d1dd"/>
    </linearGradient>
    <linearGradient id="linear-gradient-2" x1="47.53" y1="316.13" x2="204.93" y2="316.13" xlink:href="#linear-gradient"/>
  </defs>
  <g id="Layer_1">
    <g>
      <g>
        <polygon class="cls-1" points="54.28 219.69 0 219.69 81.9 349.5 109.94 394 135.12 347.82 107.07 303.36 54.28 219.69"/>
        <polygon class="cls-3" points="99.82 412.58 109.94 394 135.12 347.82 204.93 219.69 152.65 219.69 107.07 303.36 81.9 349.5 47.53 412.58 99.82 412.58"/>
      </g>
      <g>
        <polygon class="cls-2" points=".02 174.31 69.84 46.18 95.02 0 123.06 44.5 97.89 90.64 52.32 174.31 .02 174.31"/>
        <polygon class="cls-2" points="69.84 46.18 95.02 0 123.06 44.5 204.94 174.31 150.68 174.31 97.89 90.64 69.84 46.18"/>
      </g>
    </g>
  </g>
</svg>